<svg width="55" height="70" viewBox="0 0 55 70" fill="none" xmlns="http://www.w3.org/2000/svg">
<path d="M0.326875 11.4C0.326875 8.072 1.54288 5.512 3.97488 3.72C6.40688 1.864 9.89488 0.935995 14.4389 0.935995V31.08L45.6389 0.935995C47.4309 2.28 48.8709 3.752 49.9589 5.352C51.0469 6.88799 51.5909 8.23199 51.5909 9.384C51.5909 10.472 51.2389 11.464 50.5349 12.36C49.8309 13.256 48.7109 14.44 47.1749 15.912L29.0309 33L54.5669 65.352C52.3909 68.36 49.5429 69.864 46.0229 69.864C42.6949 69.864 40.0709 68.616 38.1509 66.12L19.5269 41.832L14.4389 46.824V60.168C14.4389 63.56 13.2869 66.024 10.9829 67.56C8.74288 69.096 5.19088 69.864 0.326875 69.864V11.4Z" fill="#1D828E"/>
</svg>
