<svg width="422" height="53" viewBox="0 0 422 53" fill="none" xmlns="http://www.w3.org/2000/svg">
<path d="M0.96 8.8C0.96 6.304 1.872 4.384 3.696 3.04C5.52 1.648 8.136 0.951996 11.544 0.951996V23.56L34.944 0.951996C36.288 1.96 37.368 3.064 38.184 4.264C39 5.416 39.408 6.424 39.408 7.288C39.408 8.104 39.144 8.848 38.616 9.52C38.088 10.192 37.248 11.08 36.096 12.184L22.488 25L41.64 49.264C40.008 51.52 37.872 52.648 35.232 52.648C32.736 52.648 30.768 51.712 29.328 49.84L15.36 31.624L11.544 35.368V45.376C11.544 47.92 10.68 49.768 8.952 50.92C7.272 52.072 4.608 52.648 0.96 52.648V8.8ZM62.0357 52.576C59.3904 52.576 56.937 52.0427 54.6757 50.976C52.457 49.9093 50.6864 48.4587 49.3637 46.624C48.041 44.7893 47.3797 42.7413 47.3797 40.48V32.288C47.3797 29.8987 48.041 27.7227 49.3637 25.76C50.729 23.7547 52.5424 22.1973 54.8037 21.088C57.065 19.9787 59.497 19.424 62.0997 19.424C64.6597 19.424 67.0064 19.9573 69.1397 21.024C71.3157 22.048 73.0224 23.52 74.2597 25.44C75.497 27.3173 76.1157 29.4507 76.1157 31.84V35.296C76.1157 36.32 75.7317 37.1947 74.9637 37.92C74.1957 38.6027 73.2144 38.944 72.0197 38.944H55.8917V39.84C55.8917 41.5467 56.4037 42.9547 57.4277 44.064C58.4944 45.1307 60.0517 45.664 62.0997 45.664C64.105 45.664 65.577 45.2373 66.5157 44.384C67.4544 43.488 67.9237 42.3787 67.9237 41.056C68.777 40.9707 69.417 40.928 69.8437 40.928C71.593 40.928 72.937 41.2907 73.8757 42.016C74.8144 42.7413 75.2837 43.808 75.2837 45.216C75.2837 46.368 74.7077 47.52 73.5557 48.672C72.4037 49.824 70.8037 50.7627 68.7557 51.488C66.7504 52.2133 64.5104 52.576 62.0357 52.576ZM68.1797 32.736V31.84C68.1797 30.1333 67.6037 28.7893 66.4517 27.808C65.3424 26.784 63.8704 26.272 62.0357 26.272C60.201 26.272 58.7077 26.784 57.5557 27.808C56.4464 28.7893 55.8917 30.1333 55.8917 31.84V32.736H68.1797ZM92.7672 52.576C89.0552 52.576 86.2605 51.5307 84.3832 49.44C82.5059 47.3067 81.5672 44.6187 81.5672 41.376V11.744C81.5672 9.90933 82.2712 8.608 83.6792 7.84C85.1299 7.02933 87.3485 6.624 90.3352 6.624V41.056C90.3352 42.464 90.6552 43.488 91.2952 44.128C91.9352 44.7253 92.9379 45.024 94.3032 45.024C95.9245 45.024 97.5245 44.5973 99.1032 43.744C99.5725 44.1707 99.9352 44.704 100.191 45.344C100.49 45.984 100.639 46.624 100.639 47.264C100.639 48.6293 99.9565 49.8667 98.5912 50.976C97.2685 52.0427 95.3272 52.576 92.7672 52.576ZM111.458 16.992C109.837 16.992 108.472 16.5227 107.362 15.584C106.296 14.6027 105.762 13.344 105.762 11.808C105.762 10.272 106.296 9.03466 107.362 8.096C108.472 7.11466 109.837 6.624 111.458 6.624C113.08 6.624 114.424 7.11466 115.49 8.096C116.6 9.03466 117.154 10.272 117.154 11.808C117.154 13.344 116.6 14.6027 115.49 15.584C114.424 16.5227 113.08 16.992 111.458 16.992ZM107.042 24.544C107.042 22.7093 107.768 21.408 109.218 20.64C110.669 19.8293 112.866 19.424 115.81 19.424V47.456C115.81 49.2907 115.085 50.6133 113.634 51.424C112.184 52.192 109.986 52.576 107.042 52.576V24.544ZM137.704 52.576C133.352 52.576 129.917 51.8507 127.4 50.4C124.882 48.9067 123.624 46.9227 123.624 44.448C123.624 43.3387 124.093 42.4 125.032 41.632C126.013 40.864 127.57 40.48 129.704 40.48C130.045 42.1867 130.898 43.5307 132.264 44.512C133.629 45.4507 135.229 45.92 137.064 45.92C139.197 45.92 140.84 45.664 141.992 45.152C143.186 44.64 143.784 43.8933 143.784 42.912C143.784 42.0587 143.314 41.312 142.376 40.672C141.437 40.032 139.56 39.3707 136.744 38.688C133.458 37.92 130.898 37.152 129.064 36.384C127.272 35.5733 125.949 34.5707 125.096 33.376C124.242 32.1813 123.816 30.6027 123.816 28.64C123.816 25.8667 124.968 23.648 127.272 21.984C129.618 20.2773 132.882 19.424 137.064 19.424C141.16 19.424 144.488 20.128 147.048 21.536C149.608 22.944 150.888 24.8213 150.888 27.168C150.888 28.3627 150.44 29.2373 149.544 29.792C148.648 30.304 147.154 30.5813 145.064 30.624C144.509 29.0027 143.656 27.808 142.504 27.04C141.394 26.2293 139.794 25.824 137.704 25.824C136.21 25.824 134.888 26.08 133.736 26.592C132.584 27.104 132.008 27.7227 132.008 28.448C132.008 29.2587 132.477 29.8987 133.416 30.368C134.397 30.8373 136.018 31.3067 138.28 31.776C143.186 32.8427 146.706 34.2507 148.84 36C151.016 37.7493 152.104 40.1173 152.104 43.104C152.104 44.9387 151.528 46.5813 150.376 48.032C149.224 49.4827 147.56 50.6133 145.384 51.424C143.208 52.192 140.648 52.576 137.704 52.576ZM157.325 13.28C157.325 11.1893 158.071 9.568 159.565 8.416C161.101 7.22133 163.277 6.624 166.093 6.624V23.2C165.453 23.8827 164.919 24.608 164.493 25.376L164.941 25.632C167.799 21.4933 171.511 19.424 176.077 19.424C178.21 19.424 180.087 19.9147 181.709 20.896C183.373 21.8773 184.674 23.2427 185.613 24.992C186.551 26.6987 187.021 28.6187 187.021 30.752V47.456C187.021 49.2907 186.295 50.6133 184.845 51.424C183.394 52.192 181.197 52.576 178.253 52.576V32.096C178.253 30.6453 177.783 29.4293 176.845 28.448C175.949 27.4667 174.669 26.976 173.005 26.976C170.957 26.976 169.293 27.6373 168.013 28.96C166.733 30.2827 166.093 31.9467 166.093 33.952V47.456C166.093 49.2907 165.367 50.6133 163.917 51.424C162.466 52.192 160.269 52.576 157.325 52.576V13.28ZM204.136 52.576C202.046 52.576 200.083 52.1707 198.248 51.36C196.456 50.5067 195.006 49.2907 193.896 47.712C192.787 46.0907 192.232 44.1493 192.232 41.888C192.232 39.6267 192.83 37.6853 194.024 36.064C195.219 34.4 196.798 33.1413 198.76 32.288C200.766 31.4347 202.942 31.008 205.288 31.008C207.251 31.008 208.979 31.3067 210.472 31.904C212.008 32.5013 213.438 33.376 214.76 34.528L215.08 34.144C214.184 33.3333 213.48 32.7573 212.968 32.416V31.584C212.968 29.9627 212.371 28.6827 211.176 27.744C210.024 26.7627 208.382 26.272 206.248 26.272C204.371 26.272 202.707 26.6133 201.256 27.296C199.806 27.9787 198.632 28.9813 197.736 30.304C196.712 30.048 195.838 29.5787 195.112 28.896C194.43 28.1707 194.088 27.3813 194.088 26.528C194.088 25.2053 194.664 24.0107 195.816 22.944C196.968 21.8347 198.526 20.9813 200.488 20.384C202.494 19.744 204.691 19.424 207.08 19.424C211.731 19.424 215.315 20.4907 217.832 22.624C220.35 24.7573 221.608 27.6587 221.608 31.328V46.88C221.608 48.8853 220.947 50.336 219.624 51.232C218.344 52.128 216.296 52.576 213.48 52.576V50.08C214.12 49.4827 214.632 48.9493 215.016 48.48L214.696 48.16C213.288 49.6107 211.816 50.72 210.28 51.488C208.744 52.2133 206.696 52.576 204.136 52.576ZM206.568 46.304C208.616 46.304 210.216 45.92 211.368 45.152C212.52 44.384 213.096 43.2747 213.096 41.824C213.096 40.416 212.499 39.3067 211.304 38.496C210.152 37.6853 208.574 37.28 206.568 37.28C204.776 37.28 203.347 37.6853 202.28 38.496C201.256 39.3067 200.744 40.416 200.744 41.824C200.744 43.2747 201.256 44.384 202.28 45.152C203.347 45.92 204.776 46.304 206.568 46.304ZM228.325 26.08C228.325 23.9467 229.007 22.304 230.373 21.152C231.738 20 233.807 19.424 236.581 19.424V23.2C235.941 23.8827 235.407 24.608 234.981 25.376L235.429 25.632C236.794 23.584 238.202 22.048 239.653 21.024C241.146 19.9573 242.917 19.424 244.965 19.424C248.591 19.424 251.109 21.2373 252.517 24.864C253.583 23.1573 254.949 21.8347 256.613 20.896C258.277 19.9147 260.154 19.424 262.245 19.424C265.146 19.424 267.45 20.4907 269.157 22.624C270.906 24.7573 271.781 27.4667 271.781 30.752V47.456C271.781 49.2907 271.077 50.6133 269.669 51.424C268.261 52.192 266.085 52.576 263.141 52.576V31.52C263.141 30.0693 262.821 28.9173 262.181 28.064C261.541 27.2107 260.538 26.784 259.173 26.784C257.807 26.784 256.655 27.2747 255.717 28.256C254.778 29.1947 254.309 30.7947 254.309 33.056V47.456C254.309 49.2907 253.605 50.6133 252.197 51.424C250.831 52.192 248.698 52.576 245.797 52.576V31.52C245.797 30.0693 245.477 28.9173 244.837 28.064C244.197 27.2107 243.215 26.784 241.893 26.784C238.607 26.784 236.965 28.9813 236.965 33.376V47.456C236.965 49.2907 236.261 50.6133 234.853 51.424C233.445 52.192 231.269 52.576 228.325 52.576V26.08ZM284.208 16.992C282.587 16.992 281.222 16.5227 280.112 15.584C279.046 14.6027 278.512 13.344 278.512 11.808C278.512 10.272 279.046 9.03466 280.112 8.096C281.222 7.11466 282.587 6.624 284.208 6.624C285.83 6.624 287.174 7.11466 288.24 8.096C289.35 9.03466 289.904 10.272 289.904 11.808C289.904 13.344 289.35 14.6027 288.24 15.584C287.174 16.5227 285.83 16.992 284.208 16.992ZM279.792 24.544C279.792 22.7093 280.518 21.408 281.968 20.64C283.419 19.8293 285.616 19.424 288.56 19.424V47.456C288.56 49.2907 287.835 50.6133 286.384 51.424C284.934 52.192 282.736 52.576 279.792 52.576V24.544ZM298.87 52C297.888 52 297.099 51.6587 296.502 50.976C295.947 50.2507 295.67 49.4187 295.67 48.48C295.67 47.712 295.904 47.0507 296.374 46.496L315.446 24.672L315.062 24.352L313.078 26.464H301.686C300.107 26.464 298.891 25.8667 298.038 24.672C297.227 23.4773 296.822 21.92 296.822 20H321.846C322.827 20 323.616 20.3413 324.214 21.024C324.811 21.664 325.11 22.4107 325.11 23.264C325.11 24.16 324.832 24.9067 324.278 25.504L305.206 47.328L305.654 47.712L307.638 45.536H320.31C321.888 45.536 323.083 46.1333 323.894 47.328C324.704 48.5227 325.11 50.08 325.11 52H298.87ZM334.855 52.576C333.405 52.576 332.167 52.1067 331.143 51.168C330.119 50.1867 329.607 48.9493 329.607 47.456C329.607 45.9627 330.119 44.7253 331.143 43.744C332.167 42.7627 333.405 42.272 334.855 42.272C336.306 42.272 337.543 42.7627 338.567 43.744C339.634 44.7253 340.167 45.9627 340.167 47.456C340.167 48.9493 339.634 50.1867 338.567 51.168C337.543 52.1067 336.306 52.576 334.855 52.576Z" fill="#1D828E"/>
<path d="M372.19 28.576C372.19 26.8693 372.147 25.5253 372.062 24.544C371.976 23.52 371.742 22.752 371.358 22.24C370.974 21.6853 370.398 21.3227 369.63 21.152C368.904 20.9387 367.902 20.768 366.622 20.64V18.08H381.086V37.472C381.086 40.0747 381.107 42.1227 381.15 43.616C381.235 45.0667 381.363 46.1547 381.534 46.88C381.662 47.4347 381.811 47.8827 381.982 48.224C382.152 48.5227 382.43 48.7787 382.814 48.992C383.198 49.1627 383.71 49.2907 384.35 49.376C385.032 49.4187 385.907 49.44 386.974 49.44V51.936L374.238 52.704L373.534 47.008H373.278C372.168 48.8 370.611 50.1867 368.606 51.168C366.6 52.1493 364.36 52.64 361.886 52.64C357.32 52.64 353.843 51.0187 351.454 47.776C349.619 45.3013 348.702 41.7813 348.702 37.216V28.576C348.702 26.8267 348.659 25.4613 348.574 24.48C348.488 23.456 348.254 22.688 347.87 22.176C347.528 21.664 346.995 21.3227 346.27 21.152C345.544 20.9387 344.542 20.768 343.262 20.64V18.08H357.598V36.192C357.598 40.5013 358.131 43.6373 359.198 45.6C360.264 47.52 361.971 48.48 364.318 48.48C366.835 48.48 368.776 47.328 370.142 45.024C371.507 42.8053 372.19 39.5413 372.19 35.232V28.576ZM421.085 52H389.469V50.528L409.501 21.472H403.613C401.778 21.472 400.285 21.5573 399.133 21.728C397.981 21.856 397.042 22.176 396.317 22.688C395.634 23.1573 395.101 23.8187 394.717 24.672C394.375 25.5253 394.077 26.656 393.821 28.064H391.325L392.093 18.08H420.957V19.552L401.245 48.544H406.877C409.095 48.544 410.93 48.4587 412.381 48.288C413.831 48.0747 415.005 47.712 415.901 47.2C416.797 46.6453 417.501 45.8987 418.013 44.96C418.525 43.9787 418.973 42.6987 419.357 41.12H421.853L421.085 52Z" fill="#FF7C03"/>
</svg>
